Simulation
nRows=23
nColumns=15
endheader
time  TH_x TH_y TH_z SC_y  SC_z  SC_x  AC_y  AC_z  AC_x  GH_y  GH_z  GH_yy  EL_x  PS_y
0.0  0.000000  0.000000  0.000000  -20.17347293522647  -4.566852453224934  -2.957617565793105  63.27707237870138  0.18638641052060942  4.075694946129845  -55.58393178044676  10.289501744307845  84.77730711089382  20.192755654429014  120.000000
0.04016479400749064  0.000000  0.000000  0.000000  -20.186467784569597  -4.486918766408371  -2.9293861722244796  63.25761301347915  0.28376842269373564  4.072139182344168  -55.324136143664845  10.324705421384843  84.42349276842842  20.10636120726037  120.000000
0.08032958801498127  0.000000  0.000000  0.000000  -20.2319089105109  -4.240981699321346  -2.8414401966570306  63.193345181050525  0.5688980153470568  4.0553067668475276  -54.58755431675798  10.439172075698172  83.40119598879376  19.856516495600324  120.000000
0.12049438202247191  0.000000  0.000000  0.000000  -20.327962737644953  -3.8311046214574738  -2.693831967028354  63.06563596397769  1.0245986481222027  4.020547107571431  -53.51766965213873  10.647338924895388  81.84876823535022  19.46854778061981  120.000000
0.16065917602996255  0.000000  0.000000  0.000000  -20.493670370976563  -3.2736992899115354  -2.4957933973538147  62.856715925016694  1.6250534139972823  3.9750352709330814  -52.289746218448606  10.953485833189074  79.9415533329926  18.97232380590143  120.000000
0.20082397003745317  0.000000  0.000000  0.000000  -20.744768805351413  -2.5887818400051485  -2.257096212804144  62.55919268244809  2.3428715024215503  3.9294783794917745  -51.04269136200652  11.35602302696379  77.8273915400497  18.39851319796544  120.000000
0.24098876404494382  0.000000  0.000000  0.000000  -21.09361471750032  -1.7975145534250454  -1.9836350158172062  62.17182961111143  3.154776514312267  3.895506133298696  -49.86822726532818  11.854125077023417  75.61428525300259  17.774179669832574  120.000000
0.28115355805243447  0.000000  0.000000  0.000000  -21.5479885061806  -0.9182292142445513  -1.6762808500510302  61.701615219800175  4.041634437057627  3.8837694939588068  -48.80387570956215  12.448749195809258  73.3622316484803  17.120960996551315  120.000000
0.3213183520599251  0.000000  0.000000  0.000000  -22.11205533883655  0.0318794382925736  -1.3305727671864886  61.16003105299302  4.988334842242396  3.9033487028889104  -47.85675416349413  13.144636389119356  71.10606279745144  16.457093292375998  120.000000
0.3614831460674157  0.000000  0.000000  0.000000  -22.78624309020608  1.0363389347142078  -0.9385611214579609  60.56066746490283  5.981495745468805  3.9627395757812027  -47.018059589527994  13.94936086060387  68.86748702620434  15.795810494288263  120.000000
0.40164794007490634  0.000000  0.000000  0.000000  -23.56810990047701  2.078895519785715  -0.49071738769775836  59.91871843721246  7.0088131351240985  4.0692075099261515  -46.27390629690825  14.872069424295336  66.66534346859443  15.14829287484524  120.000000
0.441812734082397  0.000000  0.000000  0.000000  -24.45173517500015  3.1432987984063563  0.022231111569404584  59.24923246069411  8.057392284930888  4.229998324468939  -45.609756386732144  15.92173382891954  64.51801606255057  14.52281006331548  120.000000
0.48197752808988764  0.000000  0.000000  0.000000  -25.428657408071608  4.213149183054565  0.6081605341801788  58.567822899675804  9.11351474105263  4.451603687843686  -45.010674163862426  17.10490108782989  62.442966660586166  13.925931736995961  120.000000
0.5221423220973783  0.000000  0.000000  0.000000  -26.487470530737486  5.272314196550038  1.272015316104353  57.890267552009426  10.162213553468426  4.73966078250145  -44.45993245508749  18.424334142556702  60.45364138904392  13.362326118658993  120.000000
0.5623071161048689  0.000000  0.000000  0.000000  -27.614922658283078  6.305436143770863  2.0157152389828994  57.232514827290196  11.187740880027023  5.098313844320821  -43.939572296125014  19.877741364884525  58.55886157514157  12.83468834266615  120.000000
0.6024719101123596  0.000000  0.000000  0.000000  -28.796604854729768  7.298969520739688  2.8381542107477067  56.609976701076725  12.173973226738115  5.529082222156816  -43.43069752258815  21.457981058561938  56.76135111559678  12.343601523643875  120.000000
0.6426367041198502  0.000000  0.000000  0.000000  -30.017559456291593  8.241563157472854  3.7356288638841213  56.036718685512646  13.106252959465237  6.03087152250171  -42.915394289742096  23.15334741349049  55.05875811806466  11.887308722497666  120.000000
0.6828014981273408  0.000000  0.000000  0.000000  -31.261693838076365  9.12466819130201  4.702393356972172  55.52638489931325  13.972587430154276  6.599965194715722  -42.375191706565815  24.947071319578463  53.4414371601824  11.46220436861107  120.000000
0.7229662921348314  0.000000  0.000000  0.000000  -32.51177783198499  9.942396588767231  5.731348735286185  55.09129775746394  14.764966037968803  7.2305657332719395  -41.7928155922743  26.818221004489704  51.8943885168085  11.062986748319789  120.000000
0.7631310861423221  0.000000  0.000000  0.000000  -33.75098872868217  10.690984841875668  6.814588906241632  54.74013010745549  15.479973688028055  7.91514992699032  -41.15563406851504  28.744192308166816  50.40079107170027  10.682765397694444  120.000000
0.8032958801498127  0.000000  0.000000  0.000000  -34.96415699420124  11.368691979503314  7.9436565725895365  54.47642736988902  16.118305738019007  8.645404587618591  -40.457772196621754  30.702781567132927  48.94542397427744  10.313318887975912  120.000000
0.8434606741573034  0.000000  0.000000  0.000000  -36.13819857976733  11.975265598990614  9.109344716657137  54.298527568412666  16.68383925034836  9.412549924971417  -39.70021577609933  32.67328534843159  47.51634300730695  9.94658530037373  120.000000
0.883625468164794  0.000000  0.000000  0.000000  -37.26209862142629  12.511585519853838  10.30136852367648  54.19999824488041  17.18202954649893  10.207835622032514  -38.88993518670222  34.637314336236905  46.10630660641289  9.576288617483698  120.000000
